<?xml version="1.0" encoding="utf-8"?>
<!-- Svg Vector Icons : http://www.onlinewebfonts.com/icon -->
<!DOCTYPE svg PUBLIC "-//W3C//DTD SVG 1.1//EN" "http://www.w3.org/Graphics/SVG/1.1/DTD/svg11.dtd">
<svg version="1.1" xmlns="http://www.w3.org/2000/svg" xmlns:xlink="http://www.w3.org/1999/xlink" x="0px" y="0px" viewBox="0 0 256 256" enable-background="new 0 0 256 256" xml:space="preserve">
<metadata> Svg Vector Icons : http://www.onlinewebfonts.com/icon </metadata>
<g><g><g><path fill="#000000" d="M245.8,90.3c0,0.1,0,0.2,0.1,0.2s0.1,0.1,0.1,0.2V92v72.1v1.2c0,0.1,0,0.2-0.1,0.2s-0.1,0.1-0.1,0.2v0.9c-0.1,0-0.2,0.1-0.2,0.5c-0.1,0.1-0.2,0.4-0.2,0.7c-0.1,0.1-0.2,0.3-0.2,0.5l-0.2,0.2c-0.1,0.1-0.2,0.3-0.2,0.5c0,0.1,0,0.2-0.1,0.2s-0.1,0.1-0.1,0.2l-0.2,0.2c0,0.3-0.1,0.5-0.2,0.5l-0.2,0.2c-0.3,0.3-0.5,0.6-0.5,0.7c-0.3,0-0.5,0.1-0.5,0.5c-0.1,0-0.4,0.1-0.7,0.5c-0.1,0.1-0.3,0.2-0.5,0.2v0.2l-107.9,71.9c-1.6,1.1-3.4,1.6-5.6,1.6c-2.2,0-4.1-0.6-5.6-1.6L14.5,172.5v-0.2L14,172c-0.3-0.3-0.6-0.5-0.7-0.5c0-0.3-0.1-0.5-0.5-0.5c0-0.1-0.1-0.4-0.5-0.7l-0.2-0.2c-0.1,0-0.2-0.1-0.2-0.2c0-0.1-0.1-0.3-0.2-0.5c0-0.1,0-0.2-0.1-0.2s-0.1-0.1-0.1-0.2c0-0.1-0.1-0.2-0.2-0.2l-0.2-0.5c0-0.1-0.1-0.3-0.2-0.5c0-0.3-0.1-0.6-0.2-0.7c0-0.3-0.1-0.5-0.2-0.5v-0.9c0-0.1,0-0.2-0.1-0.2s-0.1-0.1-0.1-0.2v-1.2V92v-1.2c0-0.1,0-0.2,0.1-0.2s0.1-0.1,0.1-0.2v-0.9c0.1,0,0.2-0.1,0.2-0.5c0.1-0.1,0.2-0.4,0.2-0.7c0.1-0.1,0.2-0.3,0.2-0.5l0.2-0.2c0.1-0.1,0.2-0.3,0.2-0.5c0-0.1,0-0.2,0.1-0.2s0.1-0.1,0.1-0.2l0.2-0.2c0-0.3,0.1-0.5,0.2-0.5l0.2-0.2c0.3-0.3,0.5-0.6,0.5-0.7c0.3,0,0.5-0.1,0.5-0.5c0.1,0,0.4-0.1,0.7-0.5c0.1-0.1,0.3-0.2,0.5-0.2v-0.2l107.9-71.9c3.8-2.2,7.5-2.2,11.2,0l107.9,71.9v0.2L242,84c0.3,0.3,0.6,0.5,0.7,0.5c0,0.3,0.1,0.5,0.5,0.5c0,0.1,0.1,0.4,0.5,0.7l0.2,0.2c0.1,0,0.2,0.1,0.2,0.2c0,0.1,0.1,0.3,0.2,0.5c0,0.1,0,0.2,0.1,0.2c0.1,0,0.1,0.1,0.1,0.2c0,0.1,0.1,0.2,0.2,0.2l0.2,0.5c0,0.1,0.1,0.3,0.2,0.5c0,0.3,0.1,0.6,0.2,0.7c0,0.3,0.1,0.5,0.2,0.5L245.8,90.3L245.8,90.3z M128,151.9l35.8-23.9L128,104.1L92.2,128L128,151.9z M117.9,86.3V39L38.3,92l35.6,23.9L117.9,86.3z M55.7,128l-25.3-16.9v33.7L55.7,128z M73.9,140.2l-35.6,23.9l79.6,52.9v-47.3L73.9,140.2z M138.1,169.7V217l79.6-52.9l-35.6-23.9L138.1,169.7z M200.3,128l25.3,16.9v-33.7L200.3,128z M182.1,115.8l35.6-23.9l-79.6-52.9v47.3L182.1,115.8z"/></g></g></g>
</svg>